<svg width="170" height="170" viewBox="0 0 170 170" fill="none" xmlns="http://www.w3.org/2000/svg" xmlns:xlink="http://www.w3.org/1999/xlink">

<circle cx="85" cy="85" r="85" fill="white"/>
<path d="M94.7169 22.8259C94.7564 22.8174 94.7961 22.81 94.8357 22.8023C94.893 22.7911 94.9501 22.7794 95.0075 22.7697C95.0662 22.7599 95.1251 22.7524 95.184 22.7442C95.2299 22.7378 95.2758 22.7307 95.3218 22.7253C95.3684 22.7198 95.4151 22.7154 95.4617 22.7109C95.521 22.7052 95.5802 22.7001 95.6395 22.6961C95.6923 22.6924 95.745 22.6899 95.7978 22.6876C95.8447 22.6855 95.8917 22.6831 95.9386 22.682C95.9946 22.6807 96.0506 22.6812 96.1066 22.6814C96.1578 22.6815 96.209 22.6816 96.2601 22.683C96.303 22.6841 96.3458 22.6872 96.3886 22.6892C96.4507 22.6921 96.5129 22.6938 96.5749 22.6985C96.6326 22.7028 96.6902 22.7098 96.7479 22.7157C96.7871 22.7197 96.8264 22.7226 96.8656 22.7273C96.934 22.7355 97.0021 22.7461 97.0703 22.7565C97.1079 22.7622 97.1456 22.7668 97.1831 22.7732C97.2338 22.7818 97.2842 22.7924 97.3347 22.8023C97.3892 22.8129 97.4439 22.8227 97.4981 22.8347C97.5065 22.8365 97.515 22.8381 97.5234 22.84L97.7713 22.9015C97.7774 22.9031 97.7834 22.9048 97.7895 22.9064C97.8494 22.9226 97.9088 22.9405 97.9683 22.9584C98.0108 22.9712 98.0537 22.9831 98.096 22.9968C98.1587 23.0171 98.2206 23.0398 98.2827 23.062C98.3165 23.0741 98.3504 23.0857 98.384 23.0984C98.4527 23.1242 98.5206 23.1523 98.5886 23.1806C98.6179 23.1928 98.6476 23.2042 98.6768 23.2169C98.733 23.2412 98.7884 23.2674 98.8441 23.2934C98.889 23.3144 98.934 23.3353 98.9785 23.3574C99.0275 23.3817 99.076 23.4071 99.1245 23.4327C99.1647 23.4539 99.2051 23.4747 99.2449 23.4968C99.3095 23.5326 99.3728 23.5708 99.4363 23.609C99.4652 23.6264 99.4943 23.6436 99.5231 23.6616C99.576 23.6945 99.628 23.7289 99.6801 23.7635C99.719 23.7893 99.7582 23.8147 99.7966 23.8414C99.8384 23.8705 99.8795 23.9005 99.9207 23.9307C99.9698 23.9666 100.019 24.0025 100.067 24.0399C100.093 24.0601 100.119 24.0811 100.144 24.1017C100.197 24.1442 100.25 24.187 100.302 24.2314C100.355 24.2762 100.406 24.3229 100.458 24.3697C100.491 24.3997 100.524 24.4288 100.557 24.4596C100.603 24.5036 100.648 24.5495 100.693 24.5951C100.724 24.6259 100.755 24.6561 100.785 24.6876C100.797 24.7004 100.81 24.7123 100.823 24.7252C100.863 24.7684 100.901 24.814 100.94 24.8579C100.958 24.8773 100.976 24.8955 100.993 24.9151C114.711 40.6946 122.883 52.4156 127.476 66.8349C131.924 80.7999 132.843 96.8195 133.283 120.585C133.293 120.632 133.305 120.679 133.315 120.727C134.007 124.249 131.712 127.667 128.19 128.359C107.538 132.417 93.2207 133.67 78.3616 130.455C63.7506 127.292 49.1306 119.901 27.7148 108.075C27.2805 107.835 26.886 107.551 26.5305 107.235C24.205 105.781 22.9902 102.96 23.661 100.197L23.7485 99.873C23.8066 99.6113 23.879 99.3494 23.9713 99.0904C30.9148 79.6123 37.078 66.8587 47.372 55.8118C57.4845 44.9599 71.2489 36.1418 92.2888 23.6958C92.9648 23.2959 93.684 23.0331 94.4138 22.8979L94.4271 22.8949C94.4504 22.8888 94.4741 22.884 94.4974 22.8782C94.5704 22.8598 94.6434 22.8417 94.7169 22.8259ZM109.057 97.6299C108.289 98.0215 107.439 98.4483 106.509 98.8948C101.905 101.106 95.341 103.911 87.437 106.322C80.1157 108.555 71.5309 110.482 62.2213 111.244C69.2068 114.368 75.22 116.473 81.1104 117.748C91.8432 120.071 102.563 119.711 118.665 116.908C116.287 109.81 112.915 103.375 109.057 97.6299ZM95.7817 38.8455C91.0697 44.2113 87.3226 50.0517 84.3471 55.98C85.1909 56.5234 86.1446 57.1539 87.1893 57.8716C91.3158 60.7066 96.9036 64.92 102.809 70.4727C108.061 75.4111 113.641 81.4836 118.67 88.6593C117.9 81.8144 116.775 76.0742 115.089 70.781C111.775 60.3762 106.161 51.3206 95.7817 38.8455ZM79.2449 68.1934C77.984 71.8736 76.9724 75.4826 76.1644 78.9256C74.5324 85.8788 73.7553 92.0323 73.3879 96.5112C76.9911 95.7668 80.4265 94.869 83.6435 93.8878C90.794 91.7069 96.7407 89.1652 100.883 87.1761C100.896 87.1696 100.91 87.1625 100.923 87.156C98.6016 84.5419 96.2355 82.1361 93.9042 79.944C88.576 74.9342 83.5271 71.1289 79.8264 68.5864C79.6292 68.4509 79.4341 68.3216 79.2449 68.1934ZM71.85 51.9422C65.7171 56.3012 60.9189 60.3436 56.883 64.6748C49.4106 72.6936 44.2903 82.0019 38.5362 97.1399C45.933 98.5907 53.2558 98.8551 60.2294 98.3555C60.2726 97.6043 60.3249 96.7893 60.3931 95.9168C60.7859 90.892 61.6439 83.8989 63.5083 75.9553C65.2378 68.5868 67.8601 60.2866 71.85 51.9422Z" fill="url(#paint0_linear_1_23)" class="rotating"/>
<defs>
<linearGradient id="paint0_linear_1_23" x1="63.3579" y1="29.8581" x2="87.4972" y2="137.488" gradientUnits="userSpaceOnUse">
<stop stop-color="#A2A2FF"/>
<stop offset="1" stop-color="#3F3F8E"/>
</linearGradient>
</defs>
</svg>
